<svg width="87" height="19" viewBox="0 0 87 19" fill="none" xmlns="http://www.w3.org/2000/svg">
<path fill-rule="evenodd" clip-rule="evenodd" d="M34.4041 12.2011L37.2022 12.6738C37.2363 12.6805 37.2636 12.721 37.2499 12.7615C37.1203 13.4367 35.9055 18.9527 30.7119 18.9392C29.6405 18.9325 28.7396 18.6692 27.9957 18.2371C27.0471 18.6894 25.9552 18.9932 24.7267 18.9392C23.0752 18.8717 21.9286 17.9197 21.2393 16.7382C20.6183 15.6782 20.3248 14.3684 20.1815 13.1194C20.1815 13.0856 20.1337 13.0721 20.1201 13.1059L17.2264 18.892C17.2128 18.9122 17.1787 18.9325 17.1514 18.9257L14.1895 18.4261C14.1622 18.4194 14.1349 18.3991 14.1349 18.3653L13.9847 16.0293C13.9779 15.9955 13.9301 15.982 13.9165 16.0158C13.4388 17.0015 12.0192 18.9325 9.50095 18.9325C6.00674 18.9325 4.86702 15.5837 4.58721 14.0916C4.34152 12.7683 4.29375 11.0804 4.37565 9.21695C4.38247 9.18319 4.34835 9.14944 4.31423 9.14944C3.18816 9.12918 1.25679 8.96714 0.0556499 8.83886C0.0215267 8.83211 -0.00577186 8.79835 0.00105278 8.76459C0.0202672 8.57767 0.0815572 8.01762 0.145436 7.43391C0.217688 6.77367 0.293253 6.08317 0.314986 5.86817C0.321811 5.82766 0.355934 5.80065 0.390057 5.8074C1.57072 5.93568 2.98342 6.06396 4.58039 6.11122C4.62133 6.11122 4.64863 6.08422 4.65546 6.05046C4.90797 3.95072 5.25603 1.87798 5.56996 0.0550542C5.57678 0.0212963 5.61091 -0.00571007 5.64503 0.00104151C6.04769 0.0685573 8.14967 0.426391 8.5455 0.493907C8.57963 0.500659 8.60693 0.534416 8.6001 0.568174C8.58712 0.644346 8.57408 0.720782 8.561 0.797473C8.27843 2.45416 7.97562 4.22956 7.75384 6.02345C7.74702 6.06396 7.78114 6.09772 7.82209 6.09772C9.09147 6.05046 10.4291 5.94243 11.8282 5.75339C11.8623 5.75339 11.8964 5.77364 11.9032 5.81415L12.2991 8.69033C12.2991 8.72409 12.2718 8.75784 12.2376 8.76459C10.5724 8.99415 8.57963 9.14268 7.50816 9.15619C7.47403 9.15619 7.44674 9.18319 7.44674 9.21695C7.35119 10.682 7.38531 12.0931 7.54228 13.1261C7.70607 14.2064 8.17697 15.874 9.54873 15.874C11.2412 15.874 13.6913 11.6678 13.4251 4.46384C13.4126 4.11618 13.3827 3.35608 13.3528 2.59428C13.3176 1.69912 13.2824 0.801614 13.275 0.568174C13.275 0.534416 13.2955 0.50741 13.3296 0.500659C13.5487 0.46125 14.363 0.325228 15.0886 0.204037C15.606 0.117602 16.0784 0.0387106 16.2573 0.00779309C16.2983 0.00104151 16.3392 0.0280478 16.3392 0.0685573L16.8989 12.5657C16.8989 12.5995 16.9466 12.613 16.9603 12.5792L20.4886 5.77364C20.4954 5.74664 20.5296 5.73313 20.5569 5.73989C20.9186 5.80065 23.1434 6.17874 23.5597 6.25301C23.5938 6.25976 23.6211 6.30027 23.6143 6.33403C23.3277 7.87339 23.0001 10.601 23.2321 12.6333C23.4778 14.8208 24.0374 15.9078 24.9383 15.9078C25.3887 15.9078 25.6344 15.8132 25.7368 15.766C25.7641 15.7525 25.7777 15.7187 25.7641 15.685C25.0065 14.0781 24.8837 12.1809 25.1362 10.7563C25.4024 9.25746 26.8492 5.42256 30.1455 5.8074C33.4896 6.19899 33.4486 9.78408 33.2575 11.0871C32.9231 13.3354 31.2033 15.4959 30.9235 15.8403C30.903 15.8605 30.9167 15.8943 30.944 15.8943C33.4213 16.1373 34.2198 12.7615 34.329 12.2552C34.3358 12.2147 34.3699 12.1944 34.4041 12.2011ZM28.4462 14.0646C29.0467 13.4704 29.8111 11.9378 29.9817 11.4112C30.3093 10.3985 30.4117 8.90638 29.7565 8.82536C29.0058 8.72409 28.3028 10.2027 28.1459 11.3032C28.0367 12.0796 28.064 13.1396 28.3916 14.0511C28.3984 14.0781 28.4257 14.0848 28.4462 14.0646Z" fill="black"/>
<path fill-rule="evenodd" clip-rule="evenodd" d="M84.067 12.1877L86.9607 12.6603C86.9948 12.667 87.0221 12.7008 86.9743 12.7683C86.6877 14.3077 85.0429 18.9865 81.2211 18.9865C78.7301 18.9865 77.4608 16.7112 77.0718 14.9693C76.7305 13.4299 76.6213 11.5192 76.6418 9.55454C76.6418 9.53428 76.6282 9.52078 76.6077 9.52078C75.5089 9.52078 74.4443 9.48702 73.4274 9.43976C73.4001 9.43976 73.3865 9.47352 73.4001 9.49377C74.9493 11.4787 75.2837 14.0443 75.038 15.3676C74.7855 16.7585 73.6526 18.9932 71.4482 18.9932C68.9777 18.9932 67.6879 17.0893 67.3193 16.4749C67.3057 16.4547 67.2716 16.4547 67.2579 16.4817C67.0668 16.9138 66.1114 19 63.6409 19C59.901 19 59.3823 14.7465 59.2731 13.3759C59.2663 13.3422 59.2185 13.3287 59.2048 13.3624L56.4409 18.9527C56.4272 18.9797 56.3931 18.9932 56.3658 18.9865L53.4312 18.4869C53.3971 18.4801 53.3766 18.4531 53.3766 18.4194L53.3698 16.5154C53.3698 16.4817 53.3288 16.4682 53.3084 16.4952C51.923 18.2843 49.8141 19.0068 48.1762 18.9865C46.4359 18.9595 44.7844 18.0008 43.3512 16.6369C43.3307 16.6167 43.2966 16.6302 43.2966 16.6572L43.1192 18.9122C43.1123 18.9527 43.0782 18.9797 43.0373 18.973L40.1027 18.4801C40.0686 18.4734 40.0481 18.4396 40.0481 18.4059C40.0798 17.9672 40.2992 15.3233 40.416 13.9167C40.4502 13.5047 40.4756 13.1988 40.4849 13.0856C40.4849 13.0519 40.478 13.0248 40.4576 12.9978C39.5567 11.7285 37.8983 8.85237 37.2159 7.44804C37.2022 7.42104 37.2159 7.38728 37.2431 7.36702C37.5707 7.16448 39.3929 6.01671 39.7137 5.81416C39.741 5.80066 39.7819 5.80066 39.8024 5.82766C40.1573 6.22601 40.5941 6.71212 40.9353 7.01594C40.9558 7.0362 40.9899 7.02269 40.9899 6.99569L41.5631 0.0955709C41.57 0.0550614 41.6041 0.0280551 41.645 0.0348067L44.5319 0.514169C44.566 0.520921 44.5865 0.554679 44.5865 0.588436L43.9722 8.27849C43.9722 8.29199 43.9859 8.31225 43.9995 8.31225C47.2481 8.94689 48.5652 6.86066 48.9884 5.07824C49.002 5.03773 49.0361 5.01747 49.0703 5.02423L51.9571 5.5576C51.998 5.56435 52.0185 5.59811 52.0117 5.63862C51.3156 8.40677 50.0257 9.6018 48.8177 10.439C47.1662 11.5868 44.566 11.6475 42.894 11.1682C42.8667 11.1547 42.8462 11.1884 42.8598 11.2154C43.8494 12.7008 46.1493 15.955 48.5857 15.9078C52.4949 15.8286 53.0589 8.72427 53.2736 6.02083C53.2785 5.95856 53.2833 5.89863 53.2879 5.84117C53.2947 5.80066 53.3288 5.77365 53.3698 5.7804L56.3521 6.27327C56.3863 6.28002 56.4067 6.30703 56.4067 6.34078V8.1097L56.4272 11.9378C56.4272 11.9716 56.4818 11.9851 56.4955 11.9513L59.5666 5.80741C59.5802 5.78715 59.6143 5.7669 59.6416 5.77365L62.583 6.25977C62.6172 6.25977 62.6376 6.29352 62.6376 6.32728C62.6303 6.42968 62.6188 6.58012 62.6044 6.76807C62.4983 8.15394 62.236 11.5789 62.3442 12.8156L62.3497 12.878C62.4522 14.0312 62.616 15.874 63.675 15.874C64.5008 15.874 64.9034 14.2401 65.0945 13.2206C65.504 11.0804 65.8043 6.44206 65.8384 5.84117C65.8384 5.80741 65.8725 5.78715 65.9066 5.78715C68.4386 6.04372 73.6253 6.50957 76.7783 6.46231C76.7919 6.46231 76.8056 6.44881 76.8056 6.43531C76.9694 4.09926 77.256 1.81722 77.5358 0.0820678C77.5427 0.0415583 77.5768 0.0213035 77.6109 0.0280551C77.8999 0.0782153 79.1382 0.284893 79.9208 0.415522C80.1916 0.46072 80.4079 0.496813 80.5114 0.514169C80.5455 0.520921 80.5728 0.554679 80.566 0.588436C80.3135 2.16831 80.0541 4.20053 79.8972 6.32053C79.8972 6.34078 79.9108 6.35429 79.9313 6.35429C81.5487 6.24626 83.2139 6.11123 84.8928 5.77365C84.9337 5.7669 84.9679 5.79391 84.9747 5.82766L85.5616 8.67008C85.5684 8.71059 85.5411 8.74435 85.507 8.7511C83.5688 9.13594 81.6443 9.29798 79.7811 9.406C79.7607 9.406 79.747 9.41951 79.747 9.43976C79.7197 11.3167 79.8153 13.0248 80.1019 14.2874C80.2384 14.895 80.6001 15.8875 81.2416 15.8875C82.8317 15.8875 83.794 13.2544 83.9851 12.2417C83.9919 12.2079 84.0329 12.1809 84.067 12.1877ZM69.2917 13.5852C69.6192 14.5305 70.5269 16.2454 71.537 15.8943C72.4446 15.5769 72.001 13.1666 71.5301 12.1944C70.9569 11.0399 70.0014 10.0001 68.8071 9.32498C68.7798 9.31148 68.7525 9.32498 68.7525 9.35199C68.7593 10.8036 68.8481 12.3092 69.2917 13.5852Z" fill="black"/>
</svg>
