<svg width="24" height="24" viewBox="0 0 24 24" fill="none" xmlns="http://www.w3.org/2000/svg">
<path d="M16.9709 8.69176C17.5723 8.47204 18.1383 8.16546 18.6509 7.78176C19.7585 6.86542 20.1605 5.34595 19.6509 4.00176C19.1134 2.65694 17.8091 1.77681 16.3609 1.78176C15.298 1.74766 14.2818 2.21869 13.6209 3.05176C12.9219 3.94956 12.3901 4.96573 12.0509 6.05176C11.7116 4.96573 11.1798 3.94956 10.4809 3.05176C9.8304 2.22219 8.82461 1.75084 7.77088 1.78176C6.32596 1.77795 5.02374 2.65269 4.48088 3.99176C3.95958 5.33248 4.34958 6.85632 5.45088 7.78176C5.96285 8.16897 6.52888 8.47894 7.13088 8.70176H2.05088C1.69189 8.70176 1.40088 8.99278 1.40088 9.35176V13.1796C1.40088 13.5386 1.69189 13.8296 2.05088 13.8296H2.83088V21.4717C2.83088 21.8307 3.12189 22.1217 3.48088 22.1217H20.6209C20.9799 22.1217 21.2709 21.8307 21.2709 21.4717V13.8296H22.0509C22.4099 13.8296 22.7009 13.5386 22.7009 13.1796V9.34176C22.7009 8.98278 22.4099 8.69176 22.0509 8.69176H16.9709ZM16.2309 3.15176H16.3009C17.2048 3.1467 18.0223 3.68778 18.3709 4.52176C18.6872 5.31731 18.462 6.22593 17.8109 6.78176C16.8809 7.56176 14.3209 8.22176 12.7609 8.54176C12.9947 6.87952 13.6259 5.29816 14.6009 3.93176C14.9891 3.42714 15.5944 3.1375 16.2309 3.15176ZM7.78088 3.10176C8.43132 3.07447 9.05434 3.36546 9.45088 3.88176C10.4277 5.2472 11.059 6.82901 11.2909 8.49176C9.73088 8.17176 7.17088 7.49176 6.29088 6.73176C5.62546 6.18598 5.3838 5.27572 5.69088 4.47176C6.04441 3.63281 6.87054 3.09128 7.78088 3.10176ZM2.70088 12.4796V9.99176H11.4009V12.4796H2.70088ZM4.13088 13.7796H11.4009V20.7617H4.13088V13.7796ZM19.9709 20.7617H12.7009V13.8196H19.9709V20.7617ZM21.4009 12.4796H12.7009V9.99176H21.4009V12.4796Z" fill="black"/>
</svg>
