<svg width="24" height="24" viewBox="0 0 24 24" fill="none" xmlns="http://www.w3.org/2000/svg">
<path fill-rule="evenodd" clip-rule="evenodd" d="M21.4796 2.43466C21.4796 2.07568 21.1886 1.78467 20.8296 1.78467H4.7C4.34101 1.78467 4.05 2.07568 4.05 2.43466V6.81801H2.64999C2.29101 6.81801 2 7.10902 2 7.46801C2 7.82703 2.29101 8.11803 2.64999 8.11803H4.05V11.3253H2.64999C2.29101 11.3253 2 11.6163 2 11.9753C2 12.3343 2.29101 12.6253 2.64999 12.6253H4.05V15.8219H2.64999C2.29101 15.8219 2 16.1129 2 16.4718C2 16.8309 2.29101 17.1219 2.64999 17.1219H4.05V21.4747C4.05 21.8337 4.34101 22.1247 4.7 22.1247H20.8296C21.1886 22.1247 21.4796 21.8337 21.4796 21.4747V2.43466ZM20.1795 20.7847H5.37L5.34999 3.12466H20.1596L20.1795 20.7847ZM8.97333 10.0728L9.37548 5.00897L11.6206 5.18728L11.1513 11.0963C11.4744 11.1649 11.7926 11.1959 12.097 11.1867C12.7419 11.1672 13.3049 10.971 13.7557 10.5956C14.2061 10.2206 14.6218 9.6022 14.8577 8.6062L17.0492 9.12528C16.722 10.5066 16.0867 11.5854 15.1968 12.3264C14.3072 13.0671 13.2406 13.4054 12.165 13.4379C11.5431 13.4566 10.9128 13.3745 10.2952 13.2059C10.3108 13.2295 10.3265 13.2531 10.3422 13.2766C10.9746 14.2244 11.6832 15.1254 12.411 15.7804C13.1601 16.4547 13.7878 16.7412 14.2721 16.748C15.2405 16.7616 15.8478 16.3946 16.3166 15.771C16.4318 15.6177 16.5414 15.4445 16.6452 15.2508C16.7397 15.0744 16.8286 14.8827 16.9122 14.6762L19 15.5207C18.8901 15.7925 18.7676 16.0584 18.6302 16.3149C18.4792 16.5963 18.3093 16.8681 18.1169 17.1242C17.244 18.2855 15.9732 19.0243 14.2404 19C12.9478 18.9818 11.8076 18.2674 10.9043 17.4544C10.8235 17.3817 10.7434 17.3071 10.6641 17.2309L10.5267 18.9604L8.2816 18.7821L8.60373 14.7267C8.55813 14.6598 8.51313 14.5932 8.4688 14.5267C7.78128 13.4964 7.21393 12.4741 6.81976 11.7133C6.62206 11.3316 6.46641 11.0129 6.3595 10.788C6.30601 10.6754 6.26463 10.5862 6.2362 10.5242C6.22198 10.4931 6.21099 10.4688 6.20333 10.4519C6.1995 10.4433 6.19651 10.4367 6.19436 10.4319L6.19096 10.4242C6.19096 10.4242 6.19046 10.4232 7.21995 9.96678L6.19046 10.4232L8.07018 9.22848C8.3449 9.54475 8.64978 9.82735 8.97333 10.0728Z" fill="black"/>
</svg>
