<svg width="24" height="24" viewBox="0 0 24 24" fill="none" xmlns="http://www.w3.org/2000/svg">
<path d="M19.7204 9.60349L16.8824 8.60449L17.5594 4.93249C17.6474 4.45549 17.3304 3.99449 16.8564 3.90649L15.8474 3.71649L15.9884 3.30749L21.2524 5.16049L19.7204 9.60349ZM15.8254 20.8945L14.6894 20.4945L15.5434 15.8595L17.3434 16.4935L15.8254 20.8945ZM13.1924 21.4825L8.27342 20.5565L11.7904 19.8325C12.2634 19.7355 12.5704 19.2705 12.4734 18.7975L12.0134 16.5185L14.0374 16.8995L13.1924 21.4825ZM4.86642 15.2765L10.2204 14.1725L11.1234 18.6485L5.76942 19.7515L4.86642 15.2765ZM7.88442 2.59949L8.79642 7.11849L3.44242 8.22049L2.53042 3.70249L7.88442 2.59949ZM10.7334 10.1735L15.1254 11.0005L14.2724 15.6265L11.7374 15.1505L10.7334 10.1735ZM3.69842 9.48949L9.05242 8.38649L9.96442 12.9045L4.61042 14.0075L3.69842 9.48949ZM17.7664 15.2695L15.7814 14.5715L16.6444 9.89249L19.2984 10.8275L17.7664 15.2695ZM10.7334 4.07149L16.2134 5.10149L15.3604 9.72849L10.4564 8.80549L10.1444 7.25949L10.7334 4.07149ZM22.0684 4.07549L16.0244 1.94949C15.8024 1.87049 15.5654 1.88349 15.3534 1.98549C15.1394 2.08649 14.9794 2.26649 14.9004 2.49349L14.5624 3.47449L10.5674 2.72349C10.3364 2.67849 10.1014 2.72749 9.90642 2.86049C9.71042 2.99449 9.57842 3.19649 9.53642 3.42849L9.45742 3.85649L9.07042 1.93449C9.02342 1.70249 8.88942 1.50249 8.69142 1.37349C8.49442 1.24549 8.26242 1.19949 8.03442 1.24849L1.86342 2.51849C1.39142 2.61549 1.08442 3.08049 1.18042 3.55349L4.58242 20.4135C4.62742 20.6435 4.76042 20.8425 4.95542 20.9735C5.10142 21.0715 5.26842 21.1215 5.44042 21.1215C5.49942 21.1215 5.55942 21.1155 5.61842 21.1035L6.37142 20.9485C6.43942 21.2915 6.70542 21.5785 7.06842 21.6465L13.3644 22.8315C13.4174 22.8405 13.4714 22.8455 13.5254 22.8455C13.7014 22.8455 13.8734 22.7925 14.0224 22.6905C14.2164 22.5565 14.3464 22.3555 14.3884 22.1245L14.4504 21.7825L15.7934 22.2545C15.8884 22.2875 15.9854 22.3025 16.0794 22.3025C16.4444 22.3025 16.7864 22.0745 16.9134 21.7085L22.6094 5.19449C22.7644 4.73849 22.5224 4.23649 22.0684 4.07549Z" fill="black"/>
</svg>
