<svg width="24" height="24" viewBox="0 0 24 24" fill="none" xmlns="http://www.w3.org/2000/svg">
<path d="M19.0751 2.16896C18.966 1.94179 18.7349 1.79764 18.4817 1.79896H4.74466C4.47048 1.80253 4.22674 1.97339 4.13121 2.22896C3.0954 4.97896 1.34558 9.91003 1.34558 10.61C1.32207 11.6803 1.97853 12.6495 2.98478 13.03V21.4678C2.98478 21.8268 3.27744 22.1178 3.63845 22.1178H20.2316C20.5926 22.1178 20.8852 21.8268 20.8852 21.4678V13.06C21.3754 12.8879 21.8097 12.5873 22.1423 12.19C22.6004 11.5996 22.7565 10.831 22.5647 10.11C22.2127 8.70003 19.3969 2.80896 19.0751 2.16896ZM14.6804 10.5C14.1093 11.4511 13.0791 12.0354 11.9652 12.04C10.7436 11.9899 9.61126 11.3902 8.88791 10.41L9.73265 3.09896H13.8256L14.6804 10.5ZM5.1972 3.09896H8.42531L7.5504 10.61C7.40961 10.98 6.83639 12.04 4.74466 12.04C3.01495 12.04 2.65292 11.26 2.65292 10.64C2.65292 10.02 3.99042 6.39896 5.1972 3.09896ZM19.6081 20.8178H4.32229V13.31C4.46308 13.31 4.59381 13.31 4.74466 13.31C6.13701 13.4157 7.49315 12.8367 8.37503 11.76C9.31736 12.7301 10.609 13.2878 11.9652 13.31C13.2696 13.3196 14.5097 12.7471 15.3441 11.75C15.5026 11.929 15.674 12.0961 15.857 12.25C16.8055 12.9839 17.985 13.3595 19.1857 13.31C19.3365 13.31 19.4673 13.31 19.6081 13.31V20.8178ZM19.1857 12.04C18.2906 12.0846 17.4081 11.8156 16.6917 11.28C16.3948 11.0393 16.1516 10.7395 15.9777 10.4L15.143 3.09896H18.0694C19.2582 5.4173 20.3288 7.9947 21.2774 10.42C21.3909 10.747 21.3385 11.1083 21.1366 11.39C20.6107 11.8758 19.8998 12.1126 19.1857 12.04Z" fill="black"/>
</svg>
