<svg width="24" height="24" viewBox="0 0 24 24" fill="none" xmlns="http://www.w3.org/2000/svg">
<path d="M14.256 20.4438C14.256 19.7638 14.257 18.0848 14.259 17.9758C14.325 16.4678 15.433 15.2868 16.781 15.2868H19.246C20.594 15.2868 21.702 16.4688 21.769 17.9478L21.772 20.4438H14.256ZM2.304 17.9768C2.371 16.4688 3.48 15.2868 4.827 15.2868H7.292C8.641 15.2868 9.748 16.4678 9.814 17.9488L9.818 20.4438H2.301C2.301 19.7608 2.303 18.0668 2.304 17.9768ZM10.838 13.3308H13.304C14.052 13.3308 14.745 13.7238 15.221 14.3558C13.944 14.9728 13.03 16.3138 12.96 17.9138C12.957 17.9828 12.956 19.7468 12.955 20.4438H11.118L11.113 17.9198C11.044 16.3338 10.15 15.0068 8.896 14.3798C9.369 13.7288 10.068 13.3308 10.838 13.3308ZM23.069 17.9188C22.97 15.7148 21.291 13.9868 19.246 13.9868H16.781C16.706 13.9868 16.636 14.0058 16.562 14.0098C15.867 12.7888 14.638 12.0308 13.304 12.0308H10.838C9.504 12.0308 8.267 12.8018 7.577 14.0168C7.482 14.0098 7.39 13.9868 7.292 13.9868H4.827C2.782 13.9868 1.104 15.7148 1.005 17.9248C1.003 17.9828 1 20.6668 1 20.7248C1 21.3058 1.374 21.7438 1.869 21.7438H22.204C22.699 21.7438 23.072 21.3058 23.072 20.7238L23.069 17.9188ZM12.0734 6.79292C12.9284 6.79292 13.6244 7.48792 13.6244 8.34292C13.6244 9.19792 12.9284 9.89392 12.0734 9.89392C11.2184 9.89392 10.5224 9.19792 10.5224 8.34292C10.5224 7.48792 11.2184 6.79292 12.0734 6.79292ZM12.0734 11.1939C13.6454 11.1939 14.9254 9.91492 14.9254 8.34292C14.9254 6.77192 13.6454 5.49292 12.0734 5.49292C10.5014 5.49292 9.2214 6.77192 9.2214 8.34292C9.2214 9.91492 10.5014 11.1939 12.0734 11.1939ZM6.0627 8.80662C6.9167 8.80662 7.6127 9.50262 7.6127 10.3576C7.6127 11.2126 6.9167 11.9076 6.0627 11.9076C5.2077 11.9076 4.5107 11.2126 4.5107 10.3576C4.5107 9.50262 5.2077 8.80662 6.0627 8.80662ZM6.0627 13.2076C7.6337 13.2076 8.9137 11.9296 8.9137 10.3576C8.9137 8.78562 7.6337 7.50662 6.0627 7.50662C4.4907 7.50662 3.2097 8.78562 3.2097 10.3576C3.2097 11.9296 4.4907 13.2076 6.0627 13.2076ZM18.0168 8.80662C18.8708 8.80662 19.5668 9.50262 19.5668 10.3576C19.5668 11.2126 18.8708 11.9076 18.0168 11.9076C17.1618 11.9076 16.4648 11.2126 16.4648 10.3576C16.4648 9.50262 17.1618 8.80662 18.0168 8.80662ZM18.0168 13.2076C19.5878 13.2076 20.8678 11.9296 20.8678 10.3576C20.8678 8.78562 19.5878 7.50662 18.0168 7.50662C16.4448 7.50662 15.1638 8.78562 15.1638 10.3576C15.1638 11.9296 16.4448 13.2076 18.0168 13.2076Z" fill="black"/>
</svg>
